<?xml version="1.0" encoding="UTF-8" standalone="no"?>
<svg
   xmlns:dc="http://purl.org/dc/elements/1.1/"
   xmlns:cc="http://creativecommons.org/ns#"
   xmlns:rdf="http://www.w3.org/1999/02/22-rdf-syntax-ns#"
   xmlns:svg="http://www.w3.org/2000/svg"
   xmlns="http://www.w3.org/2000/svg"
   id="svg8"
   version="1.1"
   viewBox="0 0 741.0603 611.33087"
   height="611.33087pt"
   width="741.0603pt">
  <metadata
     id="metadata14">
    <rdf:RDF>
      <cc:Work
         rdf:about="">
        <dc:format>image/svg+xml</dc:format>
        <dc:type
           rdf:resource="http://purl.org/dc/dcmitype/StillImage" />
      </cc:Work>
    </rdf:RDF>
  </metadata>
  <defs
     id="defs12" />
  <g
     transform="translate(-120.73973,-183.44912)"
     id="#ffffffff">
    <path
       style="opacity:1;fill:#ffffff"
       id="path2"
       d="m 301.98,183.54 c 74.32,-0.05 148.64,-0.05 222.96,-0.07 17.75,0.1 35.52,-0.19 53.27,0.15 -0.1,40.7 -0.05,81.41 -0.03,122.11 -90.38,0.12 -180.76,-0.02 -271.14,0.02 -5.76,-0.14 -11.54,0.32 -17.16,1.57 -17.37,3.88 -32.65,15.88 -40.72,31.72 -6.11,11.84 -8.1,25.72 -5.7,38.81 2.92,16.73 13.32,31.87 27.68,40.86 9.45,5.99 20.64,9.25 31.83,9.17 38.34,0.07 76.69,-0.08 115.03,0.08 11.01,-0.15 22.03,-0.2 33.02,0.5 42.07,2.76 82.79,20.92 113.2,50.07 30.7,29.22 50.79,69.34 55.49,111.48 4.98,41.62 -4.82,84.83 -27.52,120.1 -21.91,34.4 -55.53,61.29 -94.16,74.54 -19.56,6.83 -40.3,10.21 -61.01,10.05 -91.12,0.03 -182.24,0.05 -273.35,0.08 -0.02,-40.8 0.02,-81.6 -0.02,-122.4 87.13,0.02 174.26,0.06 261.39,0.05 9.3,-0.11 18.77,0.63 27.87,-1.8 17.54,-4.21 32.73,-16.81 40.37,-33.1 7.13,-14.84 7.85,-32.58 1.91,-47.95 -8.34,-22.55 -31.05,-38.97 -55.17,-39.29 -46.01,-0.1 -92.01,0.02 -138.02,-0.06 -39.08,-0.24 -77.95,-13.46 -108.96,-37.28 -19.45,-14.85 -35.98,-33.57 -48.09,-54.85 -24.22,-41.91 -30.65,-93.63 -17.56,-140.22 8.64,-31.71 26.17,-60.9 49.94,-83.58 33.04,-32 78.62,-50.66 124.65,-50.76 z" />
  </g>
  <g
     transform="translate(-120.73973,-183.44912)"
     id="#ff6a00ff">
    <path
       style="opacity:1;fill:#ff6a00"
       id="path5"
       d="m 621.09,184.56 c 20.24,-0.13 40.48,0.01 60.71,0.05 19.83,27.16 39.71,54.28 59.67,81.33 19.93,-27.09 39.86,-54.18 59.71,-81.34 20.2,-0.06 40.41,-0.15 60.62,-0.05 -29.93,40.8 -59.94,81.56 -89.7,122.49 0.1,0.34 0.3,1.03 0.39,1.37 29.73,40.59 59.47,81.17 89.25,121.72 -20.2,0.07 -40.39,0.01 -60.59,0.03 -19.99,-27.05 -39.62,-54.39 -59.82,-81.27 -13.33,18.18 -26.68,36.34 -40,54.53 -6.71,8.84 -12.9,18.15 -19.89,26.72 -20.09,0.04 -40.18,0.03 -60.27,0 29.76,-40.56 59.56,-81.11 89.27,-121.72 1.16,-1.01 -0.19,-2.19 -0.72,-3.07 -29.59,-40.23 -59.05,-80.55 -88.63,-120.79 z" />
  </g>
</svg>
